<?xml version="1.0" encoding="UTF-8"?>
<svg width="64px" height="64px" viewBox="0 0 64 64" version="1.1" xmlns="http://www.w3.org/2000/svg" xmlns:xlink="http://www.w3.org/1999/xlink">
    <!-- Generator: Sketch 49.1 (51147) - http://www.bohemiancoding.com/sketch -->
    <title>confetti</title>
    <desc>Created with Sketch.</desc>
    <defs></defs>
    <g id="Page-1" stroke="none" stroke-width="1" fill="none" fill-rule="evenodd">
        <g id="campañas_ripley_message_mobile" transform="translate(-148.000000, -217.000000)" fill-rule="nonzero">
            <g id="Group-2" transform="translate(25.000000, 217.000000)">
                <g id="confetti" transform="translate(123.000000, 0.000000)">
                    <path d="M42.9436836,35.2316812 C45.321669,34.1226834 47.6893488,33.3136849 50.0151853,32.8181859 C50.6860424,32.6753112 51.1147801,32.0119375 50.9728609,31.3365638 C50.8309416,30.6611901 50.1727492,30.229441 49.501023,30.3724407 C46.808779,30.9459396 44.0745676,31.9050627 41.3399837,33.2305601 C39.8123963,31.3964387 38.0636731,29.4786924 36.1770039,27.5793211 C34.1721308,25.5610751 32.1463982,23.6983287 30.2219832,22.0945818 C31.8872683,19.974711 33.2464896,17.6012156 34.2748143,15.0035957 C35.8781416,10.9534786 36.6911663,6.32623764 36.6911663,1.24999756 C36.6911663,0.559623907 36.1351607,0 35.4495281,0 C34.7638956,0 34.20789,0.559623907 34.20789,1.24999756 C34.20789,9.07148228 32.2158057,15.5447196 28.2817994,20.5399599 C27.539424,19.969836 26.8196463,19.445837 26.1322754,18.9792129 C22.4524324,16.4805928 20.2606928,15.894969 19.0356926,17.0839666 C19.0270011,17.0920916 19.0179371,17.1000916 19.009494,17.1084666 C19.0082524,17.1097166 19.0070107,17.1108416 19.0057691,17.1119666 C19.0050241,17.1127166 19.0044033,17.1135916 19.0036583,17.1142166 C18.6898963,17.430841 18.4962008,17.8137152 18.42282,18.2705893 L0.0966132852,62.2666284 C-0.0983239052,62.7346275 0.007215338,63.2750014 0.363689652,63.6338757 C0.601339195,63.8730002 0.918950235,64 1.24202448,64 C1.40368577,64 1.56683702,63.9682501 1.72191763,63.9027502 C1.72539422,63.9012502 1.72191763,63.9027502 1.72539422,63.9012502 L45.4237316,45.4527862 C45.8380663,45.3852864 46.1900707,45.2147867 46.4876913,44.9451622 C46.5092959,44.9270373 46.5295346,44.9077873 46.5497733,44.8885373 C46.5577197,44.8806623 46.566287,44.8741624 46.5741094,44.8661624 C46.575351,44.8649124 46.5763443,44.8635374 46.5774618,44.8624124 C46.5860291,44.8539124 46.5939756,44.8446624 46.6021704,44.8357874 C47.7830924,43.6024148 47.201385,41.3960441 44.7194745,37.6916764 C44.1948823,36.9086779 43.5987719,36.0844295 42.9436836,35.2316812 Z M9.84806686,55.0948924 C9.58893698,56.7215142 9.01269271,57.7907621 8.73543491,58.2307613 L3.56041125,60.415507 L8.81614139,47.7982816 C9.84446611,50.3934016 10.2009404,52.8793967 9.84806686,55.0948924 Z M17.4886114,50.8654007 C16.9879829,53.738395 15.6601751,55.1232673 15.2825929,55.4667667 L12.0107522,56.848014 C12.7381038,54.2412691 12.9293161,50.1034021 10.1183715,44.6719128 L13.8393127,35.7395552 C17.6999382,43.1082908 17.9896124,47.9907813 17.4886114,50.8654007 Z M21.9176589,52.6653971 L19.241432,53.7953949 C19.4964645,53.1467712 19.7213251,52.4080226 19.8842281,51.5708993 C20.8780353,46.4642842 19.2557108,40.1502966 15.0648096,32.7975609 L16.4082621,29.5724422 C17.471601,30.8605647 18.6831915,32.6836862 19.1738869,33.8331839 C19.3759014,34.306558 19.8339417,34.5900574 20.3152007,34.5900574 C20.4787244,34.5900574 20.6451039,34.5571825 20.8049028,34.4881826 C21.43491,34.2155582 21.7260741,33.4805596 21.455397,32.8461858 C20.7273004,31.1406892 18.8811086,28.4869444 17.4688694,27.0263222 L19.5216697,22.0982068 C19.8812481,22.7619555 20.3266237,23.4892041 20.8607765,24.2864526 C21.2285497,24.8354515 21.6314613,25.4045754 22.064793,25.9895742 C26.3120646,32.4778116 26.2159618,39.1189236 25.3856784,43.5500399 C24.5027495,48.2631557 22.6121071,51.713774 21.9176589,52.6653971 Z M31.4848534,48.62653 L25.5903004,51.1150252 C26.4414433,49.2355288 27.3097209,46.7681587 27.8257457,44.013539 C28.4021141,40.936795 28.6555325,36.8908029 27.5890895,32.5216865 C28.1772535,33.1471853 28.7823037,33.774059 29.4029987,34.3989328 C31.260241,36.2685542 33.1348663,38.0034258 34.9307717,39.5239228 C34.7527208,45.4255363 32.0639534,48.114781 31.4848534,48.62653 Z M35.7647801,46.8196586 C36.429429,45.4352863 37.0163513,43.6511647 37.2780887,41.4227941 C38.0275414,41.998793 38.7542723,42.5280419 39.4478513,42.998916 C40.2401406,43.536915 40.9624016,43.9850391 41.6219597,44.3470384 L35.7647801,46.8196586 Z M40.1318698,40.435671 C37.4325484,38.5102998 34.2458841,35.7385552 31.1590475,32.6309363 C28.072335,29.5234423 25.3190024,26.3153236 23.4066314,23.5978289 C21.5572113,20.969959 21.0588178,19.6280867 20.9275766,19.0468378 C21.5049384,19.1790875 22.8378369,19.6808366 25.4481328,21.5425829 C25.8352756,21.8187074 26.2330965,22.1138318 26.6383671,22.4232062 C26.5513283,22.513456 26.4654069,22.6045809 26.3768781,22.6937057 C25.8920184,23.1818297 25.8920184,23.9733282 26.3768781,24.4615772 C26.6193701,24.7055767 26.9371053,24.8277015 27.2548405,24.8277015 C27.5725757,24.8277015 27.8904351,24.7055767 28.1328028,24.4615772 C28.2887526,24.3045775 28.4423432,24.1454528 28.5941956,23.9848282 C30.4776365,25.5522001 32.4690999,27.3821965 34.4210793,29.3473177 C36.0996499,31.0371894 37.6778961,32.756186 39.077719,34.4103078 C38.8534792,34.5356825 38.6293635,34.6631823 38.4052478,34.793432 C37.8113722,35.1386814 37.6078678,35.9031799 37.9508082,36.5009287 C38.1807596,36.9019279 38.5980742,37.1261775 39.0273085,37.1261775 C39.2378903,37.1261775 39.4514521,37.0720526 39.6468859,36.9584278 C39.9915647,36.7579282 40.3364918,36.5655536 40.6812947,36.3776789 C41.2207865,37.0674276 41.721415,37.7380513 42.1734954,38.38055 C44.0230396,41.0084199 44.521309,42.3502923 44.6525502,42.9315411 C44.0749401,42.7991664 42.7420415,42.2974174 40.1318698,40.435671 Z" id="Shape" fill="#4F2D7F"></path>
                    <path d="M22.8642509,35.8820842 C22.5246816,35.1289645 21.6380867,34.7931481 20.8836047,35.1321043 C20.1526395,35.4604448 19.8141187,36.3016304 20.1026103,37.0386023 C20.3293893,37.6311403 20.8963367,38 21.5016299,38 C21.6657975,38 21.8326613,37.9727878 21.9965293,37.9156721 C22.7772241,37.6429521 23.1888415,36.7899547 22.9154784,36.0105198 C22.9012486,35.9700005 22.8819259,35.9212578 22.8642509,35.8820842 Z" id="Shape" fill="#000000"></path>
                    <path d="M46.3686027,19.6441117 C46.6144008,19.8812896 46.936468,20 47.2585352,20 C47.5807283,20 47.9026697,19.8812896 48.1484677,19.6441117 C50.9604833,16.9293244 55.5163689,15.6851127 58.8426348,15.4259424 C59.5354757,15.3719941 60.0517398,14.7858538 59.9958594,14.11709 C59.9398532,13.4482047 59.3341051,12.951735 58.6401314,13.0037392 C54.8678294,13.2976599 49.6632786,14.7450281 46.3686027,17.9257873 C45.8771324,18.4002645 45.8771324,19.1696345 46.3686027,19.6441117 Z" id="Shape" fill="#F2AD4B"></path>
                    <path d="M62.925492,13.0777522 C62.8844608,13.0664562 62.8427046,13.0553088 62.8005134,13.0444587 C62.0235292,12.8458867 61.2368309,13.3311692 61.0432736,14.1276865 C60.8498612,14.9242038 61.3229531,15.730828 62.0999373,15.9291027 L62.1740255,15.9487221 C62.299874,15.9833532 62.4263025,16 62.5507012,16 C63.1906729,16 63.7764195,15.5622796 63.9501137,14.8984905 C64.1575898,14.105689 63.6989965,13.2905928 62.925492,13.0777522 Z" id="Shape" fill="#F2AD4B"></path>
                    <path d="M9.16666667,9.66666667 L10.3333333,9.66666667 L10.3333333,10.8333333 C10.3333333,11.4775667 10.85565,12 11.5,12 C12.14435,12 12.6666667,11.4775667 12.6666667,10.8333333 L12.6666667,9.66666667 L13.8333333,9.66666667 C14.4776833,9.66666667 15,9.14423333 15,8.5 C15,7.85576667 14.4776833,7.33333333 13.8333333,7.33333333 L12.6666667,7.33333333 L12.6666667,6.16666667 C12.6666667,5.52243333 12.14435,5 11.5,5 C10.85565,5 10.3333333,5.52243333 10.3333333,6.16666667 L10.3333333,7.33333333 L9.16666667,7.33333333 C8.52231667,7.33333333 8,7.85576667 8,8.5 C8,9.14435 8.52231667,9.66666667 9.16666667,9.66666667 Z" id="Shape" fill="#E22D36"></path>
                    <path d="M38.1666667,22.6667833 L39.33345,22.6667833 L39.33345,23.8333333 C39.33345,24.4776833 39.8558833,25 40.5001167,25 C41.1444667,25 41.6667833,24.4776833 41.6667833,23.8333333 L41.6667833,22.6667833 L42.8333333,22.6667833 C43.4775667,22.6667833 44,22.14435 44,21.5001167 C44,20.8558833 43.4775667,20.33345 42.8333333,20.33345 L41.6667833,20.33345 L41.6667833,19.1666667 C41.6667833,18.5224333 41.1444667,18 40.5001167,18 C39.8558833,18 39.33345,18.5224333 39.33345,19.1666667 L39.33345,20.33345 L38.1666667,20.33345 C37.5224333,20.33345 37,20.8558833 37,21.5001167 C37,22.1444667 37.5224333,22.6667833 38.1666667,22.6667833 Z" id="Shape" fill="#E22D36"></path>
                    <path d="M55.8333333,52.3333333 L54.6666667,52.3333333 L54.6666667,51.1666667 C54.6666667,50.5224333 54.1442333,50 53.5,50 C52.8557667,50 52.3333333,50.5224333 52.3333333,51.1666667 L52.3333333,52.3333333 L51.1666667,52.3333333 C50.5224333,52.3333333 50,52.8557667 50,53.5 C50,54.1442333 50.5224333,54.6666667 51.1666667,54.6666667 L52.3333333,54.6666667 L52.3333333,55.8333333 C52.3333333,56.4775667 52.8557667,57 53.5,57 C54.1442333,57 54.6666667,56.4775667 54.6666667,55.8333333 L54.6666667,54.6666667 L55.8333333,54.6666667 C56.4775667,54.6666667 57,54.1442333 57,53.5 C57,52.8557667 56.4776833,52.3333333 55.8333333,52.3333333 Z" id="Shape" fill="#E22D36"></path>
                    <path d="M48.5,7 C50.4299,7 52,5.4299 52,3.5 C52,1.5701 50.4299,0 48.5,0 C46.5701,0 45,1.5701 45,3.5 C45,5.4299 46.5701,7 48.5,7 Z M48.5,2.33333333 C49.1433,2.33333333 49.6666667,2.8567 49.6666667,3.5 C49.6666667,4.1433 49.1433,4.66666667 48.5,4.66666667 C47.8567,4.66666667 47.3333333,4.1433 47.3333333,3.5 C47.3333333,2.8567 47.8567,2.33333333 48.5,2.33333333 Z" id="Shape" fill="#E22D36"></path>
                    <path d="M56.5,22 C54.5701,22 53,23.5701 53,25.5 C53,27.4299 54.5701,29 56.5,29 C58.4299,29 60,27.4299 60,25.5 C60,23.5701 58.4297833,22 56.5,22 Z M56.5,26.6666667 C55.8567,26.6666667 55.3333333,26.1433 55.3333333,25.5 C55.3333333,24.8567 55.8567,24.3333333 56.5,24.3333333 C57.1433,24.3333333 57.6666667,24.8567 57.6666667,25.5 C57.6666667,26.1433 57.1433,26.6666667 56.5,26.6666667 Z" id="Shape" fill="#E22D36"></path>
                    <path d="M24.5,12 C26.4299,12 28,10.4299 28,8.5 C28,6.5701 26.4299,5 24.5,5 C22.5701,5 21,6.5701 21,8.5 C21,10.4299 22.5701,12 24.5,12 Z M24.5,7.33333333 C25.1433,7.33333333 25.6666667,7.8567 25.6666667,8.5 C25.6666667,9.1433 25.1433,9.66666667 24.5,9.66666667 C23.8567,9.66666667 23.3333333,9.1433 23.3333333,8.5 C23.3333333,7.85681667 23.8567,7.33333333 24.5,7.33333333 Z" id="Shape" fill="#E22D36"></path>
                    <path d="M57,36.5 C57,35.6738 56.3262,35 55.5,35 C54.6738,35 54,35.6738 54,36.5 C54,37.3262 54.6738,38 55.5,38 C56.3262,38 57,37.32605 57,36.5 Z" id="Shape" fill="#F2AD4B"></path>
                    <path d="M42.5,13 C43.3262,13 44,12.3262 44,11.5 C44,10.6738 43.3262,10 42.5,10 C41.6738,10 41,10.6738 41,11.5 C41.00015,12.32605 41.67395,13 42.5,13 Z" id="Shape" fill="#F2AD4B"></path>
                    <path d="M58.500075,45 C57.6739163,45 57,45.6739163 57,46.500075 C57,47.3262337 57.6739163,48 58.500075,48 C59.3260837,48 60,47.3262337 60,46.500075 C60,45.6739163 59.3260837,45 58.500075,45 Z" id="Shape" fill="#F2AD4B"></path>
                    <path d="M17.5,4 C18.3262,4 19,3.3262 19,2.5 C19,1.6738 18.3262,1 17.5,1 C16.6738,1 16,1.6738 16,2.5 C16,3.3262 16.6738,4 17.5,4 Z" id="Shape" fill="#F2AD4B"></path>
                </g>
            </g>
        </g>
    </g>
</svg>